HIERARCHY
ROOT Hips
{
	OFFSET -0.001795 -0.223333 0.028219
	CHANNELS 6 Xposition Yposition Zposition Zrotation Yrotation Xrotation 
	JOINT LeftUpLeg
	{
		OFFSET 0.069520 -0.091406 -0.006815
		CHANNELS 3 Zrotation Yrotation Xrotation
		JOINT LeftLeg
		{
			OFFSET 0.034277 -0.375199 -0.004496
			CHANNELS 3 Zrotation Yrotation Xrotation
			JOINT LeftFoot
			{
				OFFSET -0.013596 -0.397961 -0.043693
				CHANNELS 3 Zrotation Yrotation Xrotation
				JOINT LeftToe
				{
					OFFSET 0.026358 -0.055791 0.119288
					CHANNELS 3 Zrotation Yrotation Xrotation
					End Site
					{
						OFFSET 0.000000 0.000000 0.000000
					}
				}
			}
		}
	}
	JOINT RightUpLeg
	{
		OFFSET -0.067670 -0.090522 -0.004320
		CHANNELS 3 Zrotation Yrotation Xrotation
		JOINT RightLeg
		{
			OFFSET -0.038290 -0.382569 -0.008850
			CHANNELS 3 Zrotation Yrotation Xrotation
			JOINT RightFoot
			{
				OFFSET 0.015774 -0.398415 -0.042312
				CHANNELS 3 Zrotation Yrotation Xrotation
				JOINT RightToe
				{
					OFFSET -0.025372 -0.048144 0.123348
					CHANNELS 3 Zrotation Yrotation Xrotation
					End Site
					{
						OFFSET 0.000000 0.000000 0.000000
					}
				}
			}
		}
	}
	JOINT Spine
	{
		OFFSET -0.002533 0.108963 -0.026696
		CHANNELS 3 Zrotation Yrotation Xrotation
		JOINT Spine1
		{
			OFFSET 0.005487 0.135180 0.001092
			CHANNELS 3 Zrotation Yrotation Xrotation
			JOINT Spine2
			{
				OFFSET 0.001457 0.052922 0.025425
				CHANNELS 3 Zrotation Yrotation Xrotation
				JOINT Neck
				{
					OFFSET -0.002778 0.213870 -0.042857
					CHANNELS 3 Zrotation Yrotation Xrotation
					JOINT Head
					{
						OFFSET 0.005152 0.064970 0.051349
						CHANNELS 3 Zrotation Yrotation Xrotation
						End Site
						{
							OFFSET 0.000000 0.000000 0.000000
						}
					}
				}
				JOINT LeftShoulder
				{
					OFFSET 0.078845 0.121749 -0.034090
					CHANNELS 3 Zrotation Yrotation Xrotation
					JOINT LeftArm
					{
						OFFSET 0.090977 0.030469 -0.008868
						CHANNELS 3 Zrotation Yrotation Xrotation
						JOINT LeftForeArm
						{
							OFFSET 0.259612 -0.012772 -0.027456
							CHANNELS 3 Zrotation Yrotation Xrotation
							JOINT LeftHand
							{
								OFFSET 0.249234 0.008986 -0.001171
								CHANNELS 3 Zrotation Yrotation Xrotation
								End Site
								{
									OFFSET 0.000000 0.000000 0.000000
								}
							}
						}
					}
				}
				JOINT RightShoulder
				{
					OFFSET -0.081759 0.118833 -0.038615
					CHANNELS 3 Zrotation Yrotation Xrotation
					JOINT RightArm
					{
						OFFSET -0.096012 0.032551 -0.009143
						CHANNELS 3 Zrotation Yrotation Xrotation
						JOINT RightForeArm
						{
							OFFSET -0.253742 -0.013329 -0.021401
							CHANNELS 3 Zrotation Yrotation Xrotation
							JOINT RightHand
							{
								OFFSET -0.255298 0.007772 -0.005559
								CHANNELS 3 Zrotation Yrotation Xrotation
								End Site
								{
									OFFSET 0.000000 0.000000 0.000000
								}
							}
						}
					}
				}
			}
		}
	}
}
MOTION
Frames: 5
Frame Time: 0.050000
0.000000 0.942009 0.000000 0.128859 1.457901 15.862526 6.755408 -1.022666 -20.328644 -0.929832 -0.078219 6.504465 2.278481 8.518749 12.043203 0.000000 0.000000 0.000000 -4.711268 1.591927 -23.664569 -0.321538 0.382434 8.688194 -1.103072 -6.577424 10.845086 0.000000 0.000000 0.000000 4.594004 -1.247537 11.331279 -0.420460 0.149755 1.147700 -3.747240 0.164923 1.054564 5.448827 -1.292463 -20.159955 0.000000 0.000000 0.000000 -22.194020 -30.142259 15.538586 -30.416143 -47.430465 8.072146 25.748510 -21.055085 -3.790946 0.000000 0.000000 0.000000 19.114196 25.701728 13.406805 33.370476 50.180284 10.372745 -22.636143 21.455054 -2.917597 0.000000 0.000000 0.000000 
-0.000197 0.941912 0.001792 -0.139285 1.146012 16.457647 7.114301 -0.976717 -20.540222 -1.025180 -0.048773 6.062968 2.474156 8.812615 12.108580 0.000000 0.000000 0.000000 -4.690113 1.614176 -23.517687 0.088636 0.263853 7.343443 -0.931037 -6.323562 11.015498 0.000000 0.000000 0.000000 4.836219 -1.244274 10.717350 0.105156 -0.031020 -0.713595 -4.564247 0.540913 2.161793 6.628641 -1.815813 -20.755179 0.000000 0.000000 0.000000 -24.601707 -28.645756 14.996281 -30.300734 -47.975952 8.137534 25.014299 -20.858949 -3.606015 0.000000 0.000000 0.000000 19.350176 25.199023 13.310537 33.570679 52.781431 11.235132 -20.903124 20.826651 -2.520878 0.000000 0.000000 0.000000 
-0.000392 0.941708 0.003492 -0.273375 1.403506 15.801237 7.307994 -0.940458 -20.038981 -1.102171 -0.050844 6.552122 2.385889 8.617733 11.785918 0.000000 0.000000 0.000000 -4.462761 1.608512 -23.093998 0.094082 0.289197 8.136739 -1.063925 -6.470002 10.719690 0.000000 0.000000 0.000000 5.549931 -1.375271 10.946522 -1.226640 0.562767 -1.147325 -4.946084 0.574077 2.466334 6.752637 -2.269738 -18.007455 0.000000 0.000000 0.000000 -23.705062 -28.390523 14.550032 -31.644015 -49.089744 8.956468 23.219050 -19.596253 -3.082931 0.000000 0.000000 0.000000 19.272105 24.900140 13.180593 33.366588 53.238711 11.261439 -19.277165 20.990656 -2.287257 0.000000 0.000000 0.000000 
-0.000446 0.941224 0.005070 -0.180135 2.405443 15.877101 7.215571 -1.014799 -20.553993 -0.913621 -0.106621 7.133556 1.963550 7.974912 11.500292 0.000000 0.000000 0.000000 -4.550641 1.532922 -22.850421 0.217986 0.253889 8.055434 -1.536929 -7.233584 10.568489 0.000000 0.000000 0.000000 5.904502 -1.320167 9.675367 -1.513057 0.677612 -0.668798 -5.213777 0.442146 2.220603 7.005294 -2.231822 -18.871727 0.000000 0.000000 0.000000 -24.550286 -28.820079 14.816053 -32.531837 -48.432189 9.176602 22.127481 -20.578910 -3.080665 0.000000 0.000000 0.000000 18.476525 24.227234 12.710839 33.832947 54.275297 11.904094 -18.383691 21.008355 -2.149233 0.000000 0.000000 0.000000 
-0.000328 0.941199 0.006942 0.002790 2.513831 15.115130 7.077497 -1.002312 -19.833311 -1.092052 -0.089230 7.504244 1.886434 7.804938 11.302620 0.000000 0.000000 0.000000 -4.489887 1.474539 -21.781697 -0.132866 0.310323 7.935962 -1.595343 -7.247631 10.241976 0.000000 0.000000 0.000000 5.504932 -1.201702 9.227829 -1.392891 0.626013 -0.657965 -5.415183 0.714287 2.905208 7.347141 -2.430795 -18.757918 0.000000 0.000000 0.000000 -26.051472 -28.903855 15.019948 -32.497380 -47.095191 8.748570 21.224709 -22.336350 -3.208239 0.000000 0.000000 0.000000 18.273124 23.871426 12.555094 34.552260 54.233919 12.180629 -18.830738 22.477834 -2.401565 0.000000 0.000000 0.000000 
